<svg width="711" height="407" viewBox="0 0 711 407" fill="none" xmlns="http://www.w3.org/2000/svg">
<path d="M242.267 78.6666C241.733 87.0666 241.333 98.1333 241.333 103.333V112.667L222.267 133.2C171.333 188.533 119.067 226.933 80.4 237.6C72 240 69.3333 241.2 69.3333 242.933C69.3333 244.933 70.2666 245.2 75.3333 244.4L81.3333 243.6V254.533V265.6L76 267.6C70.1333 270 69.8666 270.4 72.4 273.867C74.1333 276.133 75.0666 276 90.8 270.933C128.267 258.8 181.467 248 228.267 243.333L237.2 242.4L236.533 247.467C235.333 255.467 235.067 256 230.4 256C222.933 256 180.4 262.533 156.667 267.333C120.533 274.667 78.8 286.667 77.7333 290.267C77.3333 291.2 82.5333 289.867 89.6 287.333C116.533 277.733 171.6 265.733 211.333 260.8C220.933 259.6 230.4 258.267 232.533 258L236.267 257.333L235.333 284.8L234.4 312.133L243.467 311.733L252.667 311.333L252.267 297.333C252.133 289.6 251.6 277.333 251.2 269.867L250.4 256.4L260.133 255.467C282.267 253.6 339.467 251.867 362 252.667C407.333 254.133 461.867 257.867 480.533 260.8L485.6 261.6L484.667 286.8L483.733 312H492.4C497.2 312 501.467 311.6 501.733 310.933C502.133 310.4 501.867 299.733 501.467 287.333C500.933 274.8 500.667 264.267 500.8 263.867C502.267 261.067 610.933 280.667 653.6 291.467C667.333 294.933 672 295.467 670 293.467C665.733 289.467 551.467 266.933 509.333 261.733L500.667 260.667L500.267 254.8L499.867 249.067L507.6 250C536.133 253.467 600.133 265.333 640.533 274.8C652.933 277.6 663.467 280 664 280C666.133 280 666.533 274 664.667 272.933C663.067 272.133 662.667 268.667 662.667 257.2C662.667 243.067 662.8 242.533 665.333 243.333C667.333 244 668 243.6 668 241.467C668 239.467 666.133 238.267 659.067 235.867C623.867 224.267 587.867 204.4 557.467 180C541.067 166.8 513.6 138.4 503.333 124C495.6 113.067 495.333 112.533 494.4 102C494 96.1333 493.467 85.3333 493.2 78L492.933 64.6666L491.867 76.6666C491.333 83.2 490.933 93.7333 490.8 100L490.667 111.333L480.4 121.067C436.667 162.133 397.6 180.4 357.333 178.267C333.6 176.933 314.4 170.267 292 155.467C277.867 146 260.133 129.467 250.933 117.2L245.333 109.733L244.267 86.5333L243.333 63.3333L242.267 78.6666ZM488.533 168C487.6 194.8 486.8 221.867 486.8 228.267L486.667 240L480.4 239.2C476.8 238.8 472.667 238.267 471.067 237.867L468 237.333V188.267V139.333L478.933 129.2C485.067 123.467 490.133 119.067 490.133 119.2C490.267 119.2 489.467 141.2 488.533 168ZM248 121.2C248 121.733 253.067 127.733 259.333 134.4L270.667 146.4V189.067V231.6L265.733 232.533C262.933 232.933 258.267 233.333 255.2 233.333H249.867L248.267 186.933C247.333 161.467 246.267 136 245.733 130.267C245.2 123.067 245.467 120 246.533 120C247.333 120 248 120.533 248 121.2ZM240.667 127.6C240.267 131.2 239.333 156.533 238.533 184C237.733 211.467 236.8 234.267 236.533 234.533C236.267 234.8 232.667 235.333 228.667 235.733L221.333 236.267V189.2V142L230.4 131.733C235.333 126.133 239.733 121.467 240.267 121.467C240.8 121.333 240.933 124.133 240.667 127.6ZM507.733 137.6L516 147.867V195.333C516 226 516.533 242.667 517.333 242.667C518.133 242.667 518.667 226.533 518.667 196.8V150.933L529.333 161.467L540 172V208.533C540 231.067 540.533 245.467 541.333 246C542.133 246.533 542.8 234 542.933 210.933L543.333 174.933L555.067 184.267L566.667 193.6V222.133C566.667 237.867 567.067 250.667 567.733 250.667C568.267 250.667 568.533 238.267 568.533 223.2C568.267 192.133 567.2 194 580 202.667L588 208.133V232.133C588 254.4 587.867 256.133 585.733 255.467C581.733 254.267 546 248.267 522.8 244.667C510.8 242.933 500.667 241.2 500.267 240.8C500 240.4 498.8 219.467 497.867 194.4C496.933 169.2 495.867 142.4 495.467 134.667C494.933 121.2 494.933 120.8 497.067 124C498.267 125.867 503.067 132 507.733 137.6ZM465.333 189.333V237.467L457.067 236.667C441.6 235.2 443.333 240.267 443.6 196L443.733 157.333L454.267 149.467C460 145.067 464.8 141.467 465.067 141.467C465.2 141.333 465.333 162.933 465.333 189.333ZM218.4 236.8C218.133 236.933 214 237.467 209.067 238L200 238.933V201.2V163.467L209.067 154.267L218 145.2L218.4 190.8C218.533 215.867 218.533 236.533 218.4 236.8ZM283.733 155.867L293.333 162.933V196.667C293.333 235.067 294.4 232 280.533 232H272V189.867C272 166.667 272.4 148 273.067 148.267C273.6 148.4 278.4 151.867 283.733 155.867ZM441.333 197.333V234.667H437.467C435.467 234.667 430 234.267 425.467 233.867L417.333 232.933L417.6 202.267L418 171.6L426.933 166.8C431.733 164.133 436.267 161.6 436.8 160.933C437.333 160.4 438.533 160 439.6 160C440.933 160 441.333 167.067 441.333 197.333ZM317.6 203.2L317.2 230.667H306.667H296V197.467V164.4L307.067 170.133L318 175.733L317.6 203.2ZM197.333 203.2V239.733L187.733 241.067C182.4 241.867 178 242.4 177.733 242.267C177.6 242 177.333 229.067 177.333 213.333L177.067 184.8L186.933 175.733C192.267 170.8 196.8 166.8 197.067 166.667C197.2 166.667 197.333 183.067 197.333 203.2ZM414.667 203.467V233.6L410.533 232.8C408.267 232.4 404 232 401.2 232H396L396.267 205.733L396.667 179.333L404.667 176.4C409.067 174.8 413.067 173.467 413.733 173.467C414.267 173.333 414.667 186.933 414.667 203.467ZM334 180L343.333 182.4L343.733 206.533L344 230.667H332H320V203.2C320 177.6 320.133 175.733 322.4 176.667C323.6 177.2 328.933 178.667 334 180ZM394.667 206.133V232.4L386.533 231.467C382 231.067 376.267 230.667 373.867 230.667H369.333V207.333C369.333 180.8 367.6 184.133 382.667 181.6C396 179.333 394.667 176.667 394.667 206.133ZM362.8 184H366.667V207.333V230.667H356.667H346.667V206.533V182.267L352.8 183.2C356.267 183.6 360.8 184 362.8 184ZM174.4 215.6L174 243.333L165.333 244.933C150.667 247.6 152 249.6 152.133 225.6L152.267 204.667L162.4 196.4C168 191.867 173.067 188.133 173.733 188.133C174.267 188 174.533 200.4 174.4 215.6ZM149.333 227.867V247.733L140.4 249.867C135.467 250.933 131.333 251.733 131.067 251.6C130.933 251.333 130.4 244.4 129.867 236L129.067 220.667L138.133 214.4C143.2 210.933 147.733 208.133 148.4 208.133C148.933 208 149.333 216.933 149.333 227.867ZM602.667 216.4L612.667 222.133L613.067 240C613.2 249.867 613.2 258.533 612.8 259.333C612.4 260.533 609.467 260.267 601.733 258.667L591.333 256.533L590.933 233.6C590.8 220.933 591.067 210.667 591.6 210.667C592.267 210.8 597.2 213.333 602.667 216.4ZM127.867 244.8L128 252.8L118.533 255.067C113.2 256.4 108.8 257.2 108.667 257.067C108.4 256.8 107.867 251.467 107.333 245.2L106.4 233.6L116.267 228.267L126 222.8L126.933 229.733C127.333 233.6 127.733 240.267 127.867 244.8ZM627.2 228.667L637.333 233.467V250.133C637.333 265.467 637.2 266.8 635.067 266.133C632.533 265.467 624.133 263.467 618.667 262.133L615.333 261.467V242.667C615.333 232.4 615.733 224 616.133 224C616.533 224 621.6 226.133 627.2 228.667ZM105.2 250.267L105.333 258.533L95.0666 261.6L84.6666 264.8L84 254.667C83.2 243.467 83.6 241.333 85.8666 241.333C86.8 241.333 91.0666 239.867 95.4666 238.133L103.333 234.933L104.133 238.4C104.667 240.4 105.067 245.733 105.2 250.267ZM651.333 238.4L660.667 242L661.067 255.867C661.2 263.6 660.933 270.267 660.4 270.8C659.867 271.333 655.2 270.667 650 269.467L640.667 267.2L640.267 250.933C640.133 242 640.4 234.667 640.933 234.667C641.467 234.8 646.267 236.4 651.333 238.4ZM408 240C430 241.333 483.867 246.4 485.333 247.333C485.733 247.6 485.867 250.267 485.6 253.333L485.067 258.8L479.467 258C468 256.4 431.6 253.333 406.133 251.867C379.6 250.4 277.067 250.933 259.067 252.8L250.667 253.6V247.6V241.467L257.733 240.667C282.933 237.467 359.867 237.2 408 240Z" fill="black"/>
<path d="M83.0667 318.667C79.6 320 77.6 326.133 79.6 329.2C80.2667 330.267 83.3333 331.867 86.4 332.667C93.6 334.4 95.7333 336.533 93.2 339.467C91.8667 341.2 90 341.467 85.0667 340.933C77.3333 340 75.6 341.867 82 344C90.2667 346.8 97.3333 343.6 97.3333 337.2C97.3333 332.933 96.1333 331.867 88.6667 330C84.2667 328.8 83.3333 328 83.3333 325.333C83.3333 322.267 83.8667 322 89.3333 321.867C97.8667 321.733 98.4 321.467 94.6667 319.333C90.9333 317.2 87.3333 316.933 83.0667 318.667Z" fill="black"/>
<path d="M100 318.667C100 319.333 101.867 320 104 320H108V332.667C108 343.067 108.4 345.333 110 345.333C111.6 345.333 112 343.067 112 332.667V320H116C118.267 320 120 319.333 120 318.667C120 317.867 115.733 317.333 110 317.333C104.267 317.333 100 317.867 100 318.667Z" fill="black"/>
<path d="M124 331.333C124 339.733 124.533 345.333 125.333 345.333C126.133 345.333 126.667 342.667 126.667 339.333C126.667 333.6 126.8 333.333 130.4 333.333C133.467 333.333 134.667 334.4 137.067 339.333C138.667 342.667 140.933 345.333 142 345.333C143.733 345.333 143.467 344.133 140.8 338.933C137.6 332.667 137.6 332.533 140.133 330.933C143.733 328.667 143.467 322 139.733 319.467C138 318.267 134 317.333 130.4 317.333H124V331.333ZM138 325.333C138 328.267 137.333 328.667 132.4 329.067C126.8 329.467 126.667 329.333 126.667 325.333C126.667 321.333 126.8 321.2 132.4 321.6C137.333 322 138 322.4 138 325.333Z" fill="black"/>
<path d="M152.133 329.733C149.733 336.4 147.333 342.8 147.067 343.6C146.667 344.533 147.333 345.333 148.4 345.333C149.467 345.333 150.8 343.867 151.2 342C152 339.067 152.8 338.667 158 338.667C163.2 338.667 164.267 339.067 165.333 342C166.533 345.2 169.333 346.667 169.333 344.133C169.333 343.067 164.8 330.267 161.067 320.933C160.267 318.933 158.933 317.333 158.133 317.333C157.333 317.333 154.667 322.933 152.133 329.733ZM160.667 328.8C163.2 334.933 163.333 334.667 158.667 334.667C156.533 334.667 154.667 334.133 154.667 333.467C154.667 331.867 157.467 324 158.133 324C158.4 324 159.6 326.133 160.667 328.8Z" fill="black"/>
<path d="M176.267 319.467C173.067 321.733 172.267 328.133 175.067 330.4C175.867 331.067 179.2 332.4 182.4 333.333C187.2 334.533 188.133 335.333 187.733 337.733C187.467 340.133 186.267 340.8 182.267 341.067C179.467 341.333 176.4 340.8 175.333 340C173.333 338.4 171.2 340.4 172.667 342.667C174 344.8 182.533 345.733 186.533 344C194.267 340.8 192.267 331.867 183.2 329.733C177.333 328.4 174.267 324.667 177.333 322.667C180 320.933 185.733 320.933 187.6 322.8C188.533 323.733 189.2 323.6 189.733 322C190.4 320.533 189.6 319.467 187.2 318.667C182.4 316.8 179.733 317.067 176.267 319.467Z" fill="black"/>
<path d="M200.267 319.467C197.067 321.733 196.267 328.133 199.067 330.267C199.867 330.933 203.2 332.267 206.4 333.2C211.2 334.533 212.133 335.333 211.733 337.733C211.467 340.133 210.267 340.8 206.267 341.067C203.467 341.333 200.4 340.8 199.333 340C197.333 338.4 195.2 340.4 196.667 342.533C197.733 344.533 204.933 345.6 209.467 344.667C218.4 342.667 216.8 332.133 207.2 329.733C201.333 328.4 198.267 324.667 201.333 322.667C204 320.933 209.733 320.933 211.6 322.8C212.533 323.733 213.2 323.6 213.733 322C214.4 320.533 213.6 319.467 211.2 318.667C206.4 316.8 203.733 317.067 200.267 319.467Z" fill="black"/>
<path d="M221.333 331.333V345.333H230C236.8 345.333 238.667 344.933 238.667 343.333C238.667 341.733 236.933 341.333 231.333 341.333C224.133 341.333 224 341.333 224 337.333C224 333.467 224.133 333.333 230.667 333.333C235.733 333.333 237.333 332.8 237.333 331.333C237.333 329.867 235.733 329.333 230.667 329.333C224.133 329.333 224 329.2 224 325.333C224 321.333 224.133 321.333 231.333 321.333C236.933 321.333 238.667 320.933 238.667 319.333C238.667 317.733 236.8 317.333 230 317.333H221.333V331.333Z" fill="black"/>
<path d="M245.333 331.333C245.333 347.6 247.733 350.533 248.267 334.933L248.667 324.667L255.733 334.933C259.6 340.667 263.333 345.333 264 345.333C264.8 345.333 265.333 339.467 265.333 331.333C265.333 315.067 262.933 312.133 262.4 327.6L262 338L255.333 327.733C251.733 322 247.867 317.333 247.067 317.333C245.733 317.333 245.333 321.067 245.333 331.333Z" fill="black"/>
<path d="M294.667 328.667C294.667 338.267 295.067 340.4 297.333 342.667C300.667 346 306.8 346.133 310.8 342.8C313.6 340.533 314 338.933 314.533 328.8C314.933 318.933 314.667 317.333 312.8 317.333C311.067 317.333 310.667 319.067 310.667 327.867C310.667 339.467 309.333 341.867 303.067 341.067L299.333 340.667L298.933 328.933C298.667 319.867 298.133 317.333 296.667 317.333C295.067 317.333 294.667 319.6 294.667 328.667Z" fill="black"/>
<path d="M320 331.333C320 342.667 320.4 345.333 322 345.333C323.467 345.333 324 342.933 324.267 334.933L324.667 324.667L331.2 334.933C340 349.2 341.333 348.8 341.333 331.333C341.333 320 340.933 317.333 339.333 317.333C337.867 317.333 337.333 319.6 337.067 327.467L336.667 337.733L330.267 327.467C321.333 313.467 320 313.867 320 331.333Z" fill="black"/>
<path d="M348 331.333V345.333H354.667C364.4 345.333 368 341.467 368 331.333C368 321.2 364.4 317.333 354.667 317.333H348V331.333ZM361.867 322.133C364.4 324.667 364.8 337.333 362.4 339.733C361.467 340.667 358.8 341.333 356.4 341.333H352V330.667V320H355.867C358 320 360.8 320.933 361.867 322.133Z" fill="black"/>
<path d="M396 331.333V345.333H403.333C413.867 345.333 418.667 340.133 414.133 334C412.533 331.867 412.533 331.067 414.133 328.533C415.6 326.533 415.733 324.8 414.8 322.4C413.2 318.267 410.933 317.333 402.533 317.333H396V331.333ZM411.333 325.333C411.333 328.267 410.667 328.667 405.733 329.067C400.133 329.467 400 329.333 400 325.333C400 321.333 400.133 321.2 405.733 321.6C410.667 322 411.333 322.4 411.333 325.333ZM411.333 337.333C411.333 340.267 410.667 340.667 405.733 341.067C400.133 341.467 400 341.333 400 337.333C400 333.333 400.133 333.2 405.733 333.6C410.667 334 411.333 334.4 411.333 337.333Z" fill="black"/>
<path d="M422.667 331.333C422.667 339.733 423.2 345.333 424 345.333C424.8 345.333 425.333 342.667 425.333 339.333C425.333 333.6 425.467 333.333 429.067 333.333C432.133 333.333 433.333 334.4 435.733 339.333C437.333 342.667 439.6 345.333 440.667 345.333C442.4 345.333 442.133 344.133 439.467 338.933C436.267 332.667 436.267 332.533 438.8 330.933C442.4 328.667 442.133 322 438.4 319.467C436.667 318.267 432.667 317.333 429.067 317.333H422.667V331.333ZM436.667 325.333C436.667 328.267 436 328.667 431.067 329.067C425.467 329.467 425.333 329.333 425.333 325.333C425.333 321.333 425.467 321.2 431.067 321.6C436 322 436.667 322.4 436.667 325.333Z" fill="black"/>
<path d="M446.933 328.933C447.467 338.8 448 340.8 450.533 342.933C454.533 346.133 460.667 346 464 342.667C466.267 340.4 466.667 338.267 466.667 328.667C466.667 319.6 466.267 317.333 464.667 317.333C463.2 317.333 462.667 319.867 462.4 328.933L462 340.667L458.267 341.067C452 341.867 450.667 339.467 450.667 327.867C450.667 319.067 450.267 317.333 448.533 317.333C446.667 317.333 446.4 318.8 446.933 328.933Z" fill="black"/>
<path d="M473.333 331.333V345.333H482C488.8 345.333 490.667 344.933 490.667 343.333C490.667 341.733 488.933 341.333 483.333 341.333C476.133 341.333 476 341.333 476 337.333C476 333.467 476.133 333.333 482.667 333.333C487.733 333.333 489.333 332.8 489.333 331.333C489.333 329.867 487.733 329.333 482.667 329.333C476.133 329.333 476 329.2 476 325.333C476 321.333 476.133 321.333 483.333 321.333C488.933 321.333 490.667 320.933 490.667 319.333C490.667 317.733 488.8 317.333 482 317.333H473.333V331.333Z" fill="black"/>
<path d="M499.2 320.133C497.2 322.267 496.667 324.933 496.667 331.6C496.667 339.067 497.067 340.533 499.867 342.8C504.133 346.267 508.8 346 513.067 341.733C516.933 337.867 514.933 335.467 510.8 339.2C508 341.733 503.867 342 501.6 339.733C500.667 338.8 500 334.933 500 331.2C500 320.933 504.933 316.933 510.667 322.667C513.733 325.733 514.667 326 514.667 323.6C514.667 317.733 503.6 315.333 499.2 320.133Z" fill="black"/>
<path d="M521.333 331.333C521.333 342.933 521.733 345.333 523.333 345.333C524.667 345.333 525.333 344 525.333 340.933C525.333 338.133 526.4 335.467 527.867 334.133C530.4 331.733 530.667 331.867 534.667 338.533C537.067 342.267 539.867 345.333 540.933 345.333C542.8 345.333 541.467 342.4 534.133 330.4C533.067 328.667 533.733 326.933 537.067 322.8C540.667 318.267 541.067 317.333 539.067 317.333C537.733 317.467 534.267 320.533 531.333 324.4L526 331.333L525.6 324.267C525.333 319.333 524.667 317.333 523.2 317.333C521.733 317.333 521.333 320 521.333 331.333Z" fill="black"/>
<path d="M548 331.333V345.333H556.667C563.467 345.333 565.333 344.933 565.333 343.333C565.333 341.733 563.6 341.333 558 341.333C550.8 341.333 550.667 341.333 550.667 337.333C550.667 333.467 550.8 333.333 557.333 333.333C562.4 333.333 564 332.8 564 331.333C564 329.867 562.4 329.333 557.333 329.333C550.8 329.333 550.667 329.2 550.667 325.333C550.667 321.333 550.8 321.333 558 321.333C563.6 321.333 565.333 320.933 565.333 319.333C565.333 317.733 563.467 317.333 556.667 317.333H548V331.333Z" fill="black"/>
<path d="M572 331.333C572 347.6 574.4 350.533 574.933 334.933L575.333 324.667L582.4 334.933C586.267 340.667 590 345.333 590.667 345.333C591.467 345.333 592 339.467 592 331.333C592 315.067 589.6 312.133 589.067 327.6L588.667 338L582 327.733C578.4 322 574.533 317.333 573.733 317.333C572.4 317.333 572 321.067 572 331.333Z" fill="black"/>
<path d="M600 331.467V345.6L608.133 345.067C616.4 344.4 618.667 343.067 618.667 338.133C618.667 336.667 617.733 334.533 616.667 333.333C614.8 331.333 614.8 330.933 616.667 329.333C619.6 326.933 619.067 321.867 615.733 319.467C614 318.267 610 317.333 606.4 317.333H600V331.467ZM614 325.333C614 328.267 613.333 328.667 608.4 329.067C602.8 329.467 602.667 329.333 602.667 325.333C602.667 321.333 602.8 321.2 608.4 321.6C613.333 322 614 322.4 614 325.333ZM615.2 335.467C616.533 338.933 613.467 341.333 607.867 341.333C602.933 341.333 602.667 341.067 602.667 337.333C602.667 333.467 602.933 333.333 608.533 333.333C612.667 333.333 614.667 334 615.2 335.467Z" fill="black"/>
<path d="M628.667 326.933C626.667 332.267 624.133 338.667 623.2 340.933C621.733 344.667 621.733 345.333 623.467 345.333C624.533 345.333 626 343.867 626.667 342C627.733 339.2 628.8 338.667 633.867 338.667C638.933 338.667 639.867 339.067 640.533 342C641.067 343.867 642.267 345.333 643.333 345.333C644.4 345.333 645.333 345.2 645.333 344.933C645.333 342.667 634.933 318.133 633.733 317.733C632.933 317.467 630.667 321.467 628.667 326.933ZM637.333 332.933C637.333 334 635.733 334.667 633.333 334.667C628.667 334.667 628.667 334.8 631.467 328.267L633.6 323.333L635.467 327.333C636.4 329.467 637.2 332.133 637.333 332.933Z" fill="black"/>
<path d="M648.267 328.933C648.8 338.8 649.333 340.8 651.867 342.933C655.867 346.133 662 346 665.333 342.667C667.6 340.4 668 338.267 668 328.667C668 319.6 667.6 317.333 666 317.333C664.533 317.333 664 319.867 663.733 328.933L663.333 340.667L659.6 341.067C653.333 341.867 652 339.467 652 327.867C652 319.067 651.6 317.333 649.867 317.333C648 317.333 647.733 318.8 648.267 328.933Z" fill="black"/>
</svg>
