<svg xmlns="http://www.w3.org/2000/svg" version="1.1" xmlns:xlink="http://www.w3.org/1999/xlink" xmlns:svgjs="http://svgjs.dev/svgjs" width="1000" height="1000"><g clip-path="url(#SvgjsClipPath1558)"><rect width="1000" height="1000" fill="#ffffff"></rect><g transform="matrix(1.6611295681063123,0,0,1.6611295681063123,0,293.18936877076413)"><svg xmlns="http://www.w3.org/2000/svg" version="1.1" xmlns:xlink="http://www.w3.org/1999/xlink" xmlns:svgjs="http://svgjs.dev/svgjs" width="602" height="249"><svg width="602" height="249" viewBox="0 0 602 249" fill="none" xmlns="http://www.w3.org/2000/svg">
<path d="M172.933 15.3334C172.4 23.7334 172 34.8 172 40V49.3334L152.933 69.8667C102 125.2 49.7333 163.6 11.0667 174.267C2.66667 176.667 0 177.867 0 179.6C0 181.6 0.933333 181.867 6 181.067L12 180.267V191.2V202.267L6.66667 204.267C0.8 206.667 0.533333 207.067 3.06667 210.533C4.8 212.8 5.73333 212.667 21.4667 207.6C58.9333 195.467 112.133 184.667 158.933 180L167.867 179.067L167.2 184.133C166 192.133 165.733 192.667 161.067 192.667C153.6 192.667 111.067 199.2 87.3333 204C51.2 211.333 9.46667 223.333 8.4 226.933C8 227.867 13.2 226.533 20.2667 224C47.2 214.4 102.267 202.4 142 197.467C151.6 196.267 161.067 194.933 163.2 194.667L166.933 194L166 221.467L165.067 248.8L174.133 248.4L183.333 248L182.933 234C182.8 226.267 182.267 214 181.867 206.533L181.067 193.067L190.8 192.133C212.933 190.267 270.133 188.533 292.667 189.333C338 190.8 392.533 194.533 411.2 197.467L416.267 198.267L415.333 223.467L414.4 248.667H423.067C427.867 248.667 432.133 248.267 432.4 247.6C432.8 247.067 432.533 236.4 432.133 224C431.6 211.467 431.333 200.933 431.467 200.533C432.933 197.733 541.6 217.333 584.267 228.133C598 231.6 602.667 232.133 600.667 230.133C596.4 226.133 482.133 203.6 440 198.4L431.333 197.333L430.933 191.467L430.533 185.733L438.267 186.667C466.8 190.133 530.8 202 571.2 211.467C583.6 214.267 594.133 216.667 594.667 216.667C596.8 216.667 597.2 210.667 595.333 209.6C593.733 208.8 593.333 205.333 593.333 193.867C593.333 179.733 593.467 179.2 596 180C598 180.667 598.667 180.267 598.667 178.133C598.667 176.133 596.8 174.933 589.733 172.533C554.533 160.933 518.533 141.067 488.133 116.667C471.733 103.467 444.267 75.0667 434 60.6667C426.267 49.7334 426 49.2 425.067 38.6667C424.667 32.8 424.133 22 423.867 14.6667L423.6 1.33337L422.533 13.3334C422 19.8667 421.6 30.4 421.467 36.6667L421.333 48L411.067 57.7334C367.333 98.8 328.267 117.067 288 114.933C264.267 113.6 245.067 106.933 222.667 92.1334C208.533 82.6667 190.8 66.1334 181.6 53.8667L176 46.4L174.933 23.2L174 3.58522e-05L172.933 15.3334ZM419.2 104.667C418.267 131.467 417.467 158.533 417.467 164.933L417.333 176.667L411.067 175.867C407.467 175.467 403.333 174.933 401.733 174.533L398.667 174V124.933V76L409.6 65.8667C415.733 60.1334 420.8 55.7334 420.8 55.8667C420.933 55.8667 420.133 77.8667 419.2 104.667ZM178.667 57.8667C178.667 58.4 183.733 64.4 190 71.0667L201.333 83.0667V125.733V168.267L196.4 169.2C193.6 169.6 188.933 170 185.867 170H180.533L178.933 123.6C178 98.1334 176.933 72.6667 176.4 66.9334C175.867 59.7334 176.133 56.6667 177.2 56.6667C178 56.6667 178.667 57.2 178.667 57.8667ZM171.333 64.2667C170.933 67.8667 170 93.2 169.2 120.667C168.4 148.133 167.467 170.933 167.2 171.2C166.933 171.467 163.333 172 159.333 172.4L152 172.933V125.867V78.6667L161.067 68.4C166 62.8 170.4 58.1334 170.933 58.1334C171.467 58 171.6 60.8 171.333 64.2667ZM438.4 74.2667L446.667 84.5334V132C446.667 162.667 447.2 179.333 448 179.333C448.8 179.333 449.333 163.2 449.333 133.467V87.6L460 98.1334L470.667 108.667V145.2C470.667 167.733 471.2 182.133 472 182.667C472.8 183.2 473.467 170.667 473.6 147.6L474 111.6L485.733 120.933L497.333 130.267V158.8C497.333 174.533 497.733 187.333 498.4 187.333C498.933 187.333 499.2 174.933 499.2 159.867C498.933 128.8 497.867 130.667 510.667 139.333L518.667 144.8V168.8C518.667 191.067 518.533 192.8 516.4 192.133C512.4 190.933 476.667 184.933 453.467 181.333C441.467 179.6 431.333 177.867 430.933 177.467C430.667 177.067 429.467 156.133 428.533 131.067C427.6 105.867 426.533 79.0667 426.133 71.3334C425.6 57.8667 425.6 57.4667 427.733 60.6667C428.933 62.5334 433.733 68.6667 438.4 74.2667ZM396 126V174.133L387.733 173.333C372.267 171.867 374 176.933 374.267 132.667L374.4 94L384.933 86.1334C390.667 81.7334 395.467 78.1334 395.733 78.1334C395.867 78 396 99.6 396 126ZM149.067 173.467C148.8 173.6 144.667 174.133 139.733 174.667L130.667 175.6V137.867V100.133L139.733 90.9334L148.667 81.8667L149.067 127.467C149.2 152.533 149.2 173.2 149.067 173.467ZM214.4 92.5334L224 99.6V133.333C224 171.733 225.067 168.667 211.2 168.667H202.667V126.533C202.667 103.333 203.067 84.6667 203.733 84.9334C204.267 85.0667 209.067 88.5334 214.4 92.5334ZM372 134V171.333H368.133C366.133 171.333 360.667 170.933 356.133 170.533L348 169.6L348.267 138.933L348.667 108.267L357.6 103.467C362.4 100.8 366.933 98.2667 367.467 97.6C368 97.0667 369.2 96.6667 370.267 96.6667C371.6 96.6667 372 103.733 372 134ZM248.267 139.867L247.867 167.333H237.333H226.667V134.133V101.067L237.733 106.8L248.667 112.4L248.267 139.867ZM128 139.867V176.4L118.4 177.733C113.067 178.533 108.667 179.067 108.4 178.933C108.267 178.667 108 165.733 108 150L107.733 121.467L117.6 112.4C122.933 107.467 127.467 103.467 127.733 103.333C127.867 103.333 128 119.733 128 139.867ZM345.333 140.133V170.267L341.2 169.467C338.933 169.067 334.667 168.667 331.867 168.667H326.667L326.933 142.4L327.333 116L335.333 113.067C339.733 111.467 343.733 110.133 344.4 110.133C344.933 110 345.333 123.6 345.333 140.133ZM264.667 116.667L274 119.067L274.4 143.2L274.667 167.333H262.667H250.667V139.867C250.667 114.267 250.8 112.4 253.067 113.333C254.267 113.867 259.6 115.333 264.667 116.667ZM325.333 142.8V169.067L317.2 168.133C312.667 167.733 306.933 167.333 304.533 167.333H300V144C300 117.467 298.267 120.8 313.333 118.267C326.667 116 325.333 113.333 325.333 142.8ZM293.467 120.667H297.333V144V167.333H287.333H277.333V143.2V118.933L283.467 119.867C286.933 120.267 291.467 120.667 293.467 120.667ZM105.067 152.267L104.667 180L96 181.6C81.3333 184.267 82.6667 186.267 82.8 162.267L82.9333 141.333L93.0667 133.067C98.6667 128.533 103.733 124.8 104.4 124.8C104.933 124.667 105.2 137.067 105.067 152.267ZM80 164.533V184.4L71.0667 186.533C66.1333 187.6 62 188.4 61.7333 188.267C61.6 188 61.0667 181.067 60.5333 172.667L59.7333 157.333L68.8 151.067C73.8667 147.6 78.4 144.8 79.0667 144.8C79.6 144.667 80 153.6 80 164.533ZM533.333 153.067L543.333 158.8L543.733 176.667C543.867 186.533 543.867 195.2 543.467 196C543.067 197.2 540.133 196.933 532.4 195.333L522 193.2L521.6 170.267C521.467 157.6 521.733 147.333 522.267 147.333C522.933 147.467 527.867 150 533.333 153.067ZM58.5333 181.467L58.6667 189.467L49.2 191.733C43.8667 193.067 39.4667 193.867 39.3333 193.733C39.0667 193.467 38.5333 188.133 38 181.867L37.0667 170.267L46.9333 164.933L56.6667 159.467L57.6 166.4C58 170.267 58.4 176.933 58.5333 181.467ZM557.867 165.333L568 170.133V186.8C568 202.133 567.867 203.467 565.733 202.8C563.2 202.133 554.8 200.133 549.333 198.8L546 198.133V179.333C546 169.067 546.4 160.667 546.8 160.667C547.2 160.667 552.267 162.8 557.867 165.333ZM35.8667 186.933L36 195.2L25.7333 198.267L15.3333 201.467L14.6667 191.333C13.8667 180.133 14.2667 178 16.5333 178C17.4667 178 21.7333 176.533 26.1333 174.8L34 171.6L34.8 175.067C35.3333 177.067 35.7333 182.4 35.8667 186.933ZM582 175.067L591.333 178.667L591.733 192.533C591.867 200.267 591.6 206.933 591.067 207.467C590.533 208 585.867 207.333 580.667 206.133L571.333 203.867L570.933 187.6C570.8 178.667 571.067 171.333 571.6 171.333C572.133 171.467 576.933 173.067 582 175.067ZM338.667 176.667C360.667 178 414.533 183.067 416 184C416.4 184.267 416.533 186.933 416.267 190L415.733 195.467L410.133 194.667C398.667 193.067 362.267 190 336.8 188.533C310.267 187.067 207.733 187.6 189.733 189.467L181.333 190.267V184.267V178.133L188.4 177.333C213.6 174.133 290.533 173.867 338.667 176.667Z" fill="black"></path>
</svg></svg></g></g><defs><clipPath id="SvgjsClipPath1558"><rect width="1000" height="1000" x="0" y="0" rx="500" ry="500"></rect></clipPath></defs></svg>